<mxfile host="app.diagrams.net" modified="2023-07-26T13:46:02.593Z" agent="Mozilla/5.0 (Windows NT 10.0; Win64; x64) AppleWebKit/537.36 (KHTML, like Gecko) Chrome/115.0.0.0 Safari/537.36" version="21.6.2" etag="hbp-xZhQBQlG5t3YPSHc" type="github">
  <diagram name="Page-1" id="ES3LrQiwAr_SAzWsuQFd">
    <mxGraphModel>
      <root>
        <mxCell id="0" />
        <mxCell id="1" parent="0" />
      </root>
    </mxGraphModel>
  </diagram>
</mxfile>
